<svg xmlns="http://www.w3.org/2000/svg" width="800" height="450" viewBox="0 0 800 450">
  <rect width="800" height="450" fill="#0f172a" />
  <g font-family="sans-serif" font-size="18" fill="#e2e8f0">
    <text x="40" y="60" font-size="28" fill="#f8fafc">sqrdots.dctl applied (example)</text>
    <text x="40" y="92">Block average + tone quantization + Bayer dither</text>
  </g>
  <g>
    <rect x="40" y="120" width="48" height="48" fill="#1d4ed8" />
    <rect x="88" y="120" width="48" height="48" fill="#1e3a8a" />
    <rect x="136" y="120" width="48" height="48" fill="#1d4ed8" />
    <rect x="184" y="120" width="48" height="48" fill="#1e40af" />
    <rect x="232" y="120" width="48" height="48" fill="#2563eb" />
    <rect x="280" y="120" width="48" height="48" fill="#3b82f6" />
    <rect x="328" y="120" width="48" height="48" fill="#60a5fa" />
    <rect x="376" y="120" width="48" height="48" fill="#93c5fd" />

    <rect x="40" y="168" width="48" height="48" fill="#22c55e" />
    <rect x="88" y="168" width="48" height="48" fill="#16a34a" />
    <rect x="136" y="168" width="48" height="48" fill="#15803d" />
    <rect x="184" y="168" width="48" height="48" fill="#166534" />
    <rect x="232" y="168" width="48" height="48" fill="#4ade80" />
    <rect x="280" y="168" width="48" height="48" fill="#22c55e" />
    <rect x="328" y="168" width="48" height="48" fill="#16a34a" />
    <rect x="376" y="168" width="48" height="48" fill="#15803d" />

    <rect x="40" y="216" width="48" height="48" fill="#f97316" />
    <rect x="88" y="216" width="48" height="48" fill="#fb923c" />
    <rect x="136" y="216" width="48" height="48" fill="#fdba74" />
    <rect x="184" y="216" width="48" height="48" fill="#fbbf24" />
    <rect x="232" y="216" width="48" height="48" fill="#f59e0b" />
    <rect x="280" y="216" width="48" height="48" fill="#d97706" />
    <rect x="328" y="216" width="48" height="48" fill="#c2410c" />
    <rect x="376" y="216" width="48" height="48" fill="#9a3412" />

    <rect x="40" y="264" width="48" height="48" fill="#f8fafc" />
    <rect x="88" y="264" width="48" height="48" fill="#e2e8f0" />
    <rect x="136" y="264" width="48" height="48" fill="#cbd5f5" />
    <rect x="184" y="264" width="48" height="48" fill="#94a3b8" />
    <rect x="232" y="264" width="48" height="48" fill="#64748b" />
    <rect x="280" y="264" width="48" height="48" fill="#475569" />
    <rect x="328" y="264" width="48" height="48" fill="#334155" />
    <rect x="376" y="264" width="48" height="48" fill="#1f2937" />
  </g>
  <g opacity="0.6">
    <rect x="460" y="140" width="280" height="200" fill="#111827" />
    <rect x="460" y="140" width="70" height="70" fill="#1f2937" />
    <rect x="530" y="140" width="70" height="70" fill="#0f172a" />
    <rect x="600" y="140" width="70" height="70" fill="#1e293b" />
    <rect x="670" y="140" width="70" height="70" fill="#111827" />
    <rect x="460" y="210" width="70" height="70" fill="#1e3a8a" />
    <rect x="530" y="210" width="70" height="70" fill="#1d4ed8" />
    <rect x="600" y="210" width="70" height="70" fill="#2563eb" />
    <rect x="670" y="210" width="70" height="70" fill="#3b82f6" />
  </g>
</svg>
